<svg width="56" height="18" viewBox="0 0 56 18" fill="none" xmlns="http://www.w3.org/2000/svg">
<g clip-path="url(#clip0_18_2)">
<rect width="3" height="15" fill="#17FF46"/>
<rect x="3" width="6" height="3" fill="#17FF46"/>
<rect x="3" y="6" width="6" height="3" fill="#17FF46"/>
<rect x="3" y="12" width="6" height="3" fill="#17FF46"/>
<rect x="12" y="6" width="3" height="9" fill="#17FF46"/>
<rect x="18" y="6" width="3" height="9" fill="#17FF46"/>
<rect x="24" y="6" width="3" height="9" fill="#17FF46"/>
<rect x="21" y="6" width="3" height="3" fill="#17FF46"/>
<rect x="15" y="6" width="3" height="3" fill="#17FF46"/>
<rect x="29" y="6" width="3" height="12" fill="#17FF46"/>
<rect x="32" y="12" width="3" height="3" fill="#17FF46"/>
<rect x="32" y="6" width="3" height="3" fill="#17FF46"/>
<rect x="35" y="6" width="3" height="9" fill="#17FF46"/>
<rect x="41" y="6" width="3" height="9" fill="#17FF46"/>
<rect x="41" width="3" height="3" fill="#17FF46"/>
<rect x="47" y="6" width="3" height="3" fill="#17FF46"/>
<rect x="50" y="9" width="3" height="3" fill="#17FF46"/>
<rect x="53" y="12" width="3" height="3" fill="#17FF46"/>
<rect x="47" y="12" width="3" height="3" fill="#17FF46"/>
<rect x="53" y="6" width="3" height="3" fill="#17FF46"/>
</g>
<defs>
<clipPath id="clip0_18_2">
<rect width="56" height="18" fill="white"/>
</clipPath>
</defs>
</svg>
